<svg width="260" height="238" viewBox="0 0 260 238" fill="none" xmlns="http://www.w3.org/2000/svg">
<g clip-path="url(#clip0_120_3)">
<path d="M161.937 21.944C153.728 7.80001 142.556 7.62939e-06 130.477 7.62939e-06C118.398 7.62939e-06 107.218 7.80001 99.0093 21.944L7.86812 178.932C-0.451883 193.395 -1.34331 208.416 5.41669 220.131C11.8498 231.274 24.471 237.685 40.0635 237.714H220.89C236.505 237.685 249.148 231.296 255.559 220.175C262.282 208.535 261.376 193.574 253.07 179.133L161.937 21.944ZM249.133 216.461C244.074 225.227 233.778 230.263 220.875 230.286H40.071C27.2121 230.263 16.931 225.205 11.8498 216.417C6.44926 207.057 7.34812 194.747 14.3013 182.646L105.435 25.6732C112.262 13.9063 121.154 7.42858 130.477 7.42858C139.8 7.42858 148.692 13.9063 155.511 25.6732L246.645 182.839C253.59 194.918 254.497 207.175 249.133 216.461Z" fill="#D6CD00" fill-opacity="0.51"/>
<path d="M130.476 148.571C131.461 148.571 132.406 148.18 133.103 147.484C133.799 146.787 134.19 145.842 134.19 144.857V70.5714C134.19 69.5864 133.799 68.6416 133.103 67.945C132.406 67.2485 131.461 66.8572 130.476 66.8572C129.491 66.8572 128.546 67.2485 127.85 67.945C127.153 68.6416 126.762 69.5864 126.762 70.5714V144.857C126.762 145.842 127.153 146.787 127.85 147.484C128.546 148.18 129.491 148.571 130.476 148.571ZM130.001 167.143C121.807 167.143 115.144 173.806 115.144 182C115.144 190.194 121.807 196.857 130.001 196.857C138.194 196.857 144.858 190.194 144.858 182C144.858 173.806 138.194 167.143 130.001 167.143ZM130.001 189.429C128.088 189.343 126.282 188.523 124.959 187.139C123.636 185.755 122.897 183.915 122.897 182C122.897 180.085 123.636 178.245 124.959 176.861C126.282 175.477 128.088 174.657 130.001 174.571C131.913 174.657 133.719 175.477 135.043 176.861C136.366 178.245 137.104 180.085 137.104 182C137.104 183.915 136.366 185.755 135.043 187.139C133.719 188.523 131.913 189.343 130.001 189.429Z" fill="#D6CD00" fill-opacity="0.51"/>
</g>
<defs>
<clipPath id="clip0_120_3">
<rect width="260" height="237.714" fill="white"/>
</clipPath>
</defs>
</svg>
