<svg width="738" height="619" viewBox="0 0 738 619" fill="none" xmlns="http://www.w3.org/2000/svg">
<g clip-path="url(#clip0_110_2)">
<circle cx="2.64" cy="309.64" r="2.64" fill="#6ABA43" fill-opacity="0.49"/>
<circle cx="18.4803" cy="309.64" r="2.64" fill="#6ABA43" fill-opacity="0.49"/>
<circle cx="34.3202" cy="309.64" r="2.64" fill="#6ABA43" fill-opacity="0.49"/>
<circle cx="50.16" cy="309.64" r="2.64" fill="#6ABA43" fill-opacity="0.49"/>
<circle cx="65.9999" cy="309.64" r="2.64" fill="#6ABA43" fill-opacity="0.49"/>
<circle cx="81.8397" cy="309.64" r="2.64" fill="#6ABA43" fill-opacity="0.49"/>
<circle cx="97.68" cy="309.64" r="2.64" fill="#6ABA43" fill-opacity="0.49"/>
<circle cx="113.52" cy="309.64" r="2.64" fill="#6ABA43" fill-opacity="0.49"/>
<circle cx="129.36" cy="309.64" r="2.64" fill="#6ABA43" fill-opacity="0.49"/>
<circle cx="145.2" cy="309.64" r="2.64" fill="#6ABA43" fill-opacity="0.49"/>
<circle cx="161.04" cy="309.64" r="2.64" fill="#6ABA43" fill-opacity="0.49"/>
<g clip-path="url(#clip1_110_2)">
<circle cx="2.64" cy="325.48" r="2.64" fill="#6ABA43" fill-opacity="0.49"/>
<circle cx="18.4803" cy="325.48" r="2.64" fill="#6ABA43" fill-opacity="0.49"/>
<circle cx="34.3202" cy="325.48" r="2.64" fill="#6ABA43" fill-opacity="0.49"/>
<circle cx="50.16" cy="325.48" r="2.64" fill="#6ABA43" fill-opacity="0.49"/>
<circle cx="65.9999" cy="325.48" r="2.64" fill="#6ABA43" fill-opacity="0.49"/>
<circle cx="81.8397" cy="325.48" r="2.64" fill="#6ABA43" fill-opacity="0.49"/>
<circle cx="97.68" cy="325.48" r="2.64" fill="#6ABA43" fill-opacity="0.49"/>
<circle cx="113.52" cy="325.48" r="2.64" fill="#6ABA43" fill-opacity="0.49"/>
<circle cx="129.36" cy="325.48" r="2.64" fill="#6ABA43" fill-opacity="0.49"/>
<circle cx="145.2" cy="325.48" r="2.64" fill="#6ABA43" fill-opacity="0.49"/>
<circle cx="161.04" cy="325.48" r="2.64" fill="#6ABA43" fill-opacity="0.49"/>
</g>
<g clip-path="url(#clip2_110_2)">
<circle cx="2.64" cy="341.32" r="2.64" fill="#6ABA43" fill-opacity="0.49"/>
<circle cx="18.4803" cy="341.32" r="2.64" fill="#6ABA43" fill-opacity="0.49"/>
<circle cx="34.3202" cy="341.32" r="2.64" fill="#6ABA43" fill-opacity="0.49"/>
<circle cx="50.16" cy="341.32" r="2.64" fill="#6ABA43" fill-opacity="0.49"/>
<circle cx="65.9999" cy="341.32" r="2.64" fill="#6ABA43" fill-opacity="0.49"/>
<circle cx="81.8397" cy="341.32" r="2.64" fill="#6ABA43" fill-opacity="0.49"/>
<circle cx="97.68" cy="341.32" r="2.64" fill="#6ABA43" fill-opacity="0.49"/>
<circle cx="113.52" cy="341.32" r="2.64" fill="#6ABA43" fill-opacity="0.49"/>
<circle cx="129.36" cy="341.32" r="2.64" fill="#6ABA43" fill-opacity="0.49"/>
<circle cx="145.2" cy="341.32" r="2.64" fill="#6ABA43" fill-opacity="0.49"/>
<circle cx="161.04" cy="341.32" r="2.64" fill="#6ABA43" fill-opacity="0.49"/>
</g>
<g clip-path="url(#clip3_110_2)">
<circle cx="2.64" cy="357.16" r="2.64" fill="#6ABA43" fill-opacity="0.49"/>
<circle cx="18.4803" cy="357.16" r="2.64" fill="#6ABA43" fill-opacity="0.49"/>
<circle cx="34.3202" cy="357.16" r="2.64" fill="#6ABA43" fill-opacity="0.49"/>
<circle cx="50.16" cy="357.16" r="2.64" fill="#6ABA43" fill-opacity="0.49"/>
<circle cx="65.9999" cy="357.16" r="2.64" fill="#6ABA43" fill-opacity="0.49"/>
<circle cx="81.8397" cy="357.16" r="2.64" fill="#6ABA43" fill-opacity="0.49"/>
<circle cx="97.68" cy="357.16" r="2.64" fill="#6ABA43" fill-opacity="0.49"/>
<circle cx="113.52" cy="357.16" r="2.64" fill="#6ABA43" fill-opacity="0.49"/>
<circle cx="129.36" cy="357.16" r="2.64" fill="#6ABA43" fill-opacity="0.49"/>
<circle cx="145.2" cy="357.16" r="2.64" fill="#6ABA43" fill-opacity="0.49"/>
<circle cx="161.04" cy="357.16" r="2.64" fill="#6ABA43" fill-opacity="0.49"/>
</g>
<g clip-path="url(#clip4_110_2)">
<circle cx="2.64" cy="373" r="2.64" fill="#6ABA43" fill-opacity="0.49"/>
<circle cx="18.4803" cy="373" r="2.64" fill="#6ABA43" fill-opacity="0.49"/>
<circle cx="34.3202" cy="373" r="2.64" fill="#6ABA43" fill-opacity="0.49"/>
<circle cx="50.16" cy="373" r="2.64" fill="#6ABA43" fill-opacity="0.49"/>
<circle cx="65.9999" cy="373" r="2.64" fill="#6ABA43" fill-opacity="0.49"/>
<circle cx="81.8397" cy="373" r="2.64" fill="#6ABA43" fill-opacity="0.49"/>
<circle cx="97.68" cy="373" r="2.64" fill="#6ABA43" fill-opacity="0.49"/>
<circle cx="113.52" cy="373" r="2.64" fill="#6ABA43" fill-opacity="0.49"/>
<circle cx="129.36" cy="373" r="2.64" fill="#6ABA43" fill-opacity="0.49"/>
<circle cx="145.2" cy="373" r="2.64" fill="#6ABA43" fill-opacity="0.49"/>
<circle cx="161.04" cy="373" r="2.64" fill="#6ABA43" fill-opacity="0.49"/>
</g>
<g clip-path="url(#clip5_110_2)">
<circle cx="2.64" cy="388.84" r="2.64" fill="#6ABA43" fill-opacity="0.49"/>
<circle cx="18.4803" cy="388.84" r="2.64" fill="#6ABA43" fill-opacity="0.49"/>
<circle cx="34.3202" cy="388.84" r="2.64" fill="#6ABA43" fill-opacity="0.49"/>
<circle cx="50.16" cy="388.84" r="2.64" fill="#6ABA43" fill-opacity="0.49"/>
<circle cx="65.9999" cy="388.84" r="2.64" fill="#6ABA43" fill-opacity="0.49"/>
<circle cx="81.8397" cy="388.84" r="2.64" fill="#6ABA43" fill-opacity="0.49"/>
<circle cx="97.68" cy="388.84" r="2.64" fill="#6ABA43" fill-opacity="0.49"/>
<circle cx="113.52" cy="388.84" r="2.64" fill="#6ABA43" fill-opacity="0.49"/>
<circle cx="129.36" cy="388.84" r="2.64" fill="#6ABA43" fill-opacity="0.49"/>
<circle cx="145.2" cy="388.84" r="2.64" fill="#6ABA43" fill-opacity="0.49"/>
<circle cx="161.04" cy="388.84" r="2.64" fill="#6ABA43" fill-opacity="0.49"/>
</g>
<g clip-path="url(#clip6_110_2)">
<circle cx="2.64" cy="404.68" r="2.64" fill="#6ABA43" fill-opacity="0.49"/>
<circle cx="18.4803" cy="404.68" r="2.64" fill="#6ABA43" fill-opacity="0.49"/>
<circle cx="34.3202" cy="404.68" r="2.64" fill="#6ABA43" fill-opacity="0.49"/>
<circle cx="50.16" cy="404.68" r="2.64" fill="#6ABA43" fill-opacity="0.49"/>
<circle cx="65.9999" cy="404.68" r="2.64" fill="#6ABA43" fill-opacity="0.49"/>
<circle cx="81.8397" cy="404.68" r="2.64" fill="#6ABA43" fill-opacity="0.49"/>
<circle cx="97.68" cy="404.68" r="2.64" fill="#6ABA43" fill-opacity="0.49"/>
<circle cx="113.52" cy="404.68" r="2.64" fill="#6ABA43" fill-opacity="0.49"/>
<circle cx="129.36" cy="404.68" r="2.64" fill="#6ABA43" fill-opacity="0.49"/>
<circle cx="145.2" cy="404.68" r="2.64" fill="#6ABA43" fill-opacity="0.49"/>
<circle cx="161.04" cy="404.68" r="2.64" fill="#6ABA43" fill-opacity="0.49"/>
</g>
<g clip-path="url(#clip7_110_2)">
<circle cx="2.64" cy="420.52" r="2.64" fill="#6ABA43" fill-opacity="0.49"/>
<circle cx="18.4803" cy="420.52" r="2.64" fill="#6ABA43" fill-opacity="0.49"/>
<circle cx="34.3202" cy="420.52" r="2.64" fill="#6ABA43" fill-opacity="0.49"/>
<circle cx="50.16" cy="420.52" r="2.64" fill="#6ABA43" fill-opacity="0.49"/>
<circle cx="65.9999" cy="420.52" r="2.64" fill="#6ABA43" fill-opacity="0.49"/>
<circle cx="81.8397" cy="420.52" r="2.64" fill="#6ABA43" fill-opacity="0.49"/>
<circle cx="97.68" cy="420.52" r="2.64" fill="#6ABA43" fill-opacity="0.49"/>
<circle cx="113.52" cy="420.52" r="2.64" fill="#6ABA43" fill-opacity="0.49"/>
<circle cx="129.36" cy="420.52" r="2.64" fill="#6ABA43" fill-opacity="0.49"/>
<circle cx="145.2" cy="420.52" r="2.64" fill="#6ABA43" fill-opacity="0.49"/>
<circle cx="161.04" cy="420.52" r="2.64" fill="#6ABA43" fill-opacity="0.49"/>
</g>
<g clip-path="url(#clip8_110_2)">
<circle cx="2.64" cy="436.36" r="2.64" fill="#6ABA43" fill-opacity="0.49"/>
<circle cx="18.4803" cy="436.36" r="2.64" fill="#6ABA43" fill-opacity="0.49"/>
<circle cx="34.3202" cy="436.36" r="2.64" fill="#6ABA43" fill-opacity="0.49"/>
<circle cx="50.16" cy="436.36" r="2.64" fill="#6ABA43" fill-opacity="0.49"/>
<circle cx="65.9999" cy="436.36" r="2.64" fill="#6ABA43" fill-opacity="0.49"/>
<circle cx="81.8397" cy="436.36" r="2.64" fill="#6ABA43" fill-opacity="0.49"/>
<circle cx="97.68" cy="436.36" r="2.64" fill="#6ABA43" fill-opacity="0.49"/>
<circle cx="113.52" cy="436.36" r="2.64" fill="#6ABA43" fill-opacity="0.49"/>
<circle cx="129.36" cy="436.36" r="2.64" fill="#6ABA43" fill-opacity="0.49"/>
<circle cx="145.2" cy="436.36" r="2.64" fill="#6ABA43" fill-opacity="0.49"/>
<circle cx="161.04" cy="436.36" r="2.64" fill="#6ABA43" fill-opacity="0.49"/>
</g>
<g clip-path="url(#clip9_110_2)">
<circle cx="2.64" cy="452.2" r="2.64" fill="#6ABA43" fill-opacity="0.49"/>
<circle cx="18.4803" cy="452.2" r="2.64" fill="#6ABA43" fill-opacity="0.49"/>
<circle cx="34.3202" cy="452.2" r="2.64" fill="#6ABA43" fill-opacity="0.49"/>
<circle cx="50.16" cy="452.2" r="2.64" fill="#6ABA43" fill-opacity="0.49"/>
<circle cx="65.9999" cy="452.2" r="2.64" fill="#6ABA43" fill-opacity="0.49"/>
<circle cx="81.8397" cy="452.2" r="2.64" fill="#6ABA43" fill-opacity="0.49"/>
<circle cx="97.68" cy="452.2" r="2.64" fill="#6ABA43" fill-opacity="0.49"/>
<circle cx="113.52" cy="452.2" r="2.64" fill="#6ABA43" fill-opacity="0.49"/>
<circle cx="129.36" cy="452.2" r="2.64" fill="#6ABA43" fill-opacity="0.49"/>
<circle cx="145.2" cy="452.2" r="2.64" fill="#6ABA43" fill-opacity="0.49"/>
<circle cx="161.04" cy="452.2" r="2.64" fill="#6ABA43" fill-opacity="0.49"/>
</g>
<g clip-path="url(#clip10_110_2)">
<circle cx="2.64" cy="468.04" r="2.64" fill="#6ABA43" fill-opacity="0.49"/>
<circle cx="18.4803" cy="468.04" r="2.64" fill="#6ABA43" fill-opacity="0.49"/>
<circle cx="34.3202" cy="468.04" r="2.64" fill="#6ABA43" fill-opacity="0.49"/>
<circle cx="50.16" cy="468.04" r="2.64" fill="#6ABA43" fill-opacity="0.49"/>
<circle cx="65.9999" cy="468.04" r="2.64" fill="#6ABA43" fill-opacity="0.49"/>
<circle cx="81.8397" cy="468.04" r="2.64" fill="#6ABA43" fill-opacity="0.49"/>
<circle cx="97.68" cy="468.04" r="2.64" fill="#6ABA43" fill-opacity="0.49"/>
<circle cx="113.52" cy="468.04" r="2.64" fill="#6ABA43" fill-opacity="0.49"/>
<circle cx="129.36" cy="468.04" r="2.64" fill="#6ABA43" fill-opacity="0.49"/>
<circle cx="145.2" cy="468.04" r="2.64" fill="#6ABA43" fill-opacity="0.49"/>
<circle cx="161.04" cy="468.04" r="2.64" fill="#6ABA43" fill-opacity="0.49"/>
</g>
</g>
<g clip-path="url(#clip11_110_2)">
<g clip-path="url(#clip12_110_2)">
<circle cx="458.506" cy="3.61861" r="2.64" transform="rotate(27.9011 458.506 3.61861)" fill="#6ABA43" fill-opacity="0.49"/>
<circle cx="472.505" cy="11.031" r="2.64" transform="rotate(27.9011 472.505 11.031)" fill="#6ABA43" fill-opacity="0.49"/>
<circle cx="486.504" cy="18.4431" r="2.64" transform="rotate(27.9011 486.504 18.4431)" fill="#6ABA43" fill-opacity="0.49"/>
<circle cx="500.503" cy="25.8555" r="2.64" transform="rotate(27.9011 500.503 25.8555)" fill="#6ABA43" fill-opacity="0.49"/>
<circle cx="514.501" cy="33.2676" r="2.64" transform="rotate(27.9011 514.501 33.2676)" fill="#6ABA43" fill-opacity="0.49"/>
<circle cx="528.5" cy="40.6798" r="2.64" transform="rotate(27.9011 528.5 40.6798)" fill="#6ABA43" fill-opacity="0.49"/>
<circle cx="542.499" cy="48.0921" r="2.64" transform="rotate(27.9011 542.499 48.0921)" fill="#6ABA43" fill-opacity="0.49"/>
<circle cx="556.498" cy="55.5045" r="2.64" transform="rotate(27.9011 556.498 55.5045)" fill="#6ABA43" fill-opacity="0.49"/>
<circle cx="570.496" cy="62.9167" r="2.64" transform="rotate(27.9011 570.496 62.9167)" fill="#6ABA43" fill-opacity="0.49"/>
<circle cx="584.495" cy="70.329" r="2.64" transform="rotate(27.9011 584.495 70.329)" fill="#6ABA43" fill-opacity="0.49"/>
<circle cx="598.494" cy="77.7413" r="2.64" transform="rotate(27.9011 598.494 77.7413)" fill="#6ABA43" fill-opacity="0.49"/>
</g>
<g clip-path="url(#clip13_110_2)">
<circle cx="451.094" cy="17.6173" r="2.64" transform="rotate(27.9011 451.094 17.6173)" fill="#6ABA43" fill-opacity="0.49"/>
<circle cx="465.093" cy="25.0297" r="2.64" transform="rotate(27.9011 465.093 25.0297)" fill="#6ABA43" fill-opacity="0.49"/>
<circle cx="479.092" cy="32.4418" r="2.64" transform="rotate(27.9011 479.092 32.4418)" fill="#6ABA43" fill-opacity="0.49"/>
<circle cx="493.09" cy="39.8542" r="2.64" transform="rotate(27.9011 493.09 39.8542)" fill="#6ABA43" fill-opacity="0.49"/>
<circle cx="507.089" cy="47.2663" r="2.64" transform="rotate(27.9011 507.089 47.2663)" fill="#6ABA43" fill-opacity="0.49"/>
<circle cx="521.087" cy="54.6785" r="2.64" transform="rotate(27.9011 521.087 54.6785)" fill="#6ABA43" fill-opacity="0.49"/>
<circle cx="535.086" cy="62.0909" r="2.64" transform="rotate(27.9011 535.086 62.0909)" fill="#6ABA43" fill-opacity="0.49"/>
<circle cx="549.086" cy="69.5032" r="2.64" transform="rotate(27.9011 549.086 69.5032)" fill="#6ABA43" fill-opacity="0.49"/>
<circle cx="563.084" cy="76.9154" r="2.64" transform="rotate(27.9011 563.084 76.9154)" fill="#6ABA43" fill-opacity="0.49"/>
<circle cx="577.083" cy="84.3277" r="2.64" transform="rotate(27.9011 577.083 84.3277)" fill="#6ABA43" fill-opacity="0.49"/>
<circle cx="591.082" cy="91.7401" r="2.64" transform="rotate(27.9011 591.082 91.7401)" fill="#6ABA43" fill-opacity="0.49"/>
</g>
<g clip-path="url(#clip14_110_2)">
<circle cx="443.682" cy="31.616" r="2.64" transform="rotate(27.9011 443.682 31.616)" fill="#6ABA43" fill-opacity="0.49"/>
<circle cx="457.681" cy="39.0284" r="2.64" transform="rotate(27.9011 457.681 39.0284)" fill="#6ABA43" fill-opacity="0.49"/>
<circle cx="471.679" cy="46.4405" r="2.64" transform="rotate(27.9011 471.679 46.4405)" fill="#6ABA43" fill-opacity="0.49"/>
<circle cx="485.678" cy="53.8529" r="2.64" transform="rotate(27.9011 485.678 53.8529)" fill="#6ABA43" fill-opacity="0.49"/>
<circle cx="499.676" cy="61.265" r="2.64" transform="rotate(27.9011 499.676 61.265)" fill="#6ABA43" fill-opacity="0.49"/>
<circle cx="513.675" cy="68.6772" r="2.64" transform="rotate(27.9011 513.675 68.6772)" fill="#6ABA43" fill-opacity="0.49"/>
<circle cx="527.674" cy="76.0896" r="2.64" transform="rotate(27.9011 527.674 76.0896)" fill="#6ABA43" fill-opacity="0.49"/>
<circle cx="541.673" cy="83.5019" r="2.64" transform="rotate(27.9011 541.673 83.5019)" fill="#6ABA43" fill-opacity="0.49"/>
<circle cx="555.671" cy="90.9141" r="2.64" transform="rotate(27.9011 555.671 90.9141)" fill="#6ABA43" fill-opacity="0.49"/>
<circle cx="569.67" cy="98.3264" r="2.64" transform="rotate(27.9011 569.67 98.3264)" fill="#6ABA43" fill-opacity="0.49"/>
<circle cx="583.669" cy="105.739" r="2.64" transform="rotate(27.9011 583.669 105.739)" fill="#6ABA43" fill-opacity="0.49"/>
</g>
<g clip-path="url(#clip15_110_2)">
<circle cx="436.27" cy="45.6147" r="2.64" transform="rotate(27.9011 436.27 45.6147)" fill="#6ABA43" fill-opacity="0.49"/>
<circle cx="450.269" cy="53.0271" r="2.64" transform="rotate(27.9011 450.269 53.0271)" fill="#6ABA43" fill-opacity="0.49"/>
<circle cx="464.267" cy="60.4393" r="2.64" transform="rotate(27.9011 464.267 60.4393)" fill="#6ABA43" fill-opacity="0.49"/>
<circle cx="478.266" cy="67.8516" r="2.64" transform="rotate(27.9011 478.266 67.8516)" fill="#6ABA43" fill-opacity="0.49"/>
<circle cx="492.264" cy="75.2638" r="2.64" transform="rotate(27.9011 492.264 75.2638)" fill="#6ABA43" fill-opacity="0.49"/>
<circle cx="506.263" cy="82.6759" r="2.64" transform="rotate(27.9011 506.263 82.6759)" fill="#6ABA43" fill-opacity="0.49"/>
<circle cx="520.262" cy="90.0883" r="2.64" transform="rotate(27.9011 520.262 90.0883)" fill="#6ABA43" fill-opacity="0.49"/>
<circle cx="534.261" cy="97.5006" r="2.64" transform="rotate(27.9011 534.261 97.5006)" fill="#6ABA43" fill-opacity="0.49"/>
<circle cx="548.259" cy="104.913" r="2.64" transform="rotate(27.9011 548.259 104.913)" fill="#6ABA43" fill-opacity="0.49"/>
<circle cx="562.258" cy="112.325" r="2.64" transform="rotate(27.9011 562.258 112.325)" fill="#6ABA43" fill-opacity="0.49"/>
<circle cx="576.257" cy="119.737" r="2.64" transform="rotate(27.9011 576.257 119.737)" fill="#6ABA43" fill-opacity="0.49"/>
</g>
<g clip-path="url(#clip16_110_2)">
<circle cx="428.858" cy="59.6135" r="2.64" transform="rotate(27.9011 428.858 59.6135)" fill="#6ABA43" fill-opacity="0.49"/>
<circle cx="442.857" cy="67.0258" r="2.64" transform="rotate(27.9011 442.857 67.0258)" fill="#6ABA43" fill-opacity="0.49"/>
<circle cx="456.855" cy="74.438" r="2.64" transform="rotate(27.9011 456.855 74.438)" fill="#6ABA43" fill-opacity="0.49"/>
<circle cx="470.854" cy="81.8503" r="2.64" transform="rotate(27.9011 470.854 81.8503)" fill="#6ABA43" fill-opacity="0.49"/>
<circle cx="484.852" cy="89.2625" r="2.64" transform="rotate(27.9011 484.852 89.2625)" fill="#6ABA43" fill-opacity="0.49"/>
<circle cx="498.851" cy="96.6747" r="2.64" transform="rotate(27.9011 498.851 96.6747)" fill="#6ABA43" fill-opacity="0.49"/>
<circle cx="512.85" cy="104.087" r="2.64" transform="rotate(27.9011 512.85 104.087)" fill="#6ABA43" fill-opacity="0.49"/>
<circle cx="526.849" cy="111.499" r="2.64" transform="rotate(27.9011 526.849 111.499)" fill="#6ABA43" fill-opacity="0.49"/>
<circle cx="540.847" cy="118.912" r="2.64" transform="rotate(27.9011 540.847 118.912)" fill="#6ABA43" fill-opacity="0.49"/>
<circle cx="554.846" cy="126.324" r="2.64" transform="rotate(27.9011 554.846 126.324)" fill="#6ABA43" fill-opacity="0.49"/>
<circle cx="568.845" cy="133.736" r="2.64" transform="rotate(27.9011 568.845 133.736)" fill="#6ABA43" fill-opacity="0.49"/>
</g>
<g clip-path="url(#clip17_110_2)">
<circle cx="421.445" cy="73.6122" r="2.64" transform="rotate(27.9011 421.445 73.6122)" fill="#6ABA43" fill-opacity="0.49"/>
<circle cx="435.444" cy="81.0245" r="2.64" transform="rotate(27.9011 435.444 81.0245)" fill="#6ABA43" fill-opacity="0.49"/>
<circle cx="449.442" cy="88.4367" r="2.64" transform="rotate(27.9011 449.442 88.4367)" fill="#6ABA43" fill-opacity="0.49"/>
<circle cx="463.441" cy="95.849" r="2.64" transform="rotate(27.9011 463.441 95.849)" fill="#6ABA43" fill-opacity="0.49"/>
<circle cx="477.44" cy="103.261" r="2.64" transform="rotate(27.9011 477.44 103.261)" fill="#6ABA43" fill-opacity="0.49"/>
<circle cx="491.438" cy="110.673" r="2.64" transform="rotate(27.9011 491.438 110.673)" fill="#6ABA43" fill-opacity="0.49"/>
<circle cx="505.437" cy="118.086" r="2.64" transform="rotate(27.9011 505.437 118.086)" fill="#6ABA43" fill-opacity="0.49"/>
<circle cx="519.436" cy="125.498" r="2.64" transform="rotate(27.9011 519.436 125.498)" fill="#6ABA43" fill-opacity="0.49"/>
<circle cx="533.435" cy="132.91" r="2.64" transform="rotate(27.9011 533.435 132.91)" fill="#6ABA43" fill-opacity="0.49"/>
<circle cx="547.433" cy="140.323" r="2.64" transform="rotate(27.9011 547.433 140.323)" fill="#6ABA43" fill-opacity="0.49"/>
<circle cx="561.432" cy="147.735" r="2.64" transform="rotate(27.9011 561.432 147.735)" fill="#6ABA43" fill-opacity="0.49"/>
</g>
<g clip-path="url(#clip18_110_2)">
<circle cx="414.033" cy="87.6109" r="2.64" transform="rotate(27.9011 414.033 87.6109)" fill="#6ABA43" fill-opacity="0.49"/>
<circle cx="428.032" cy="95.0232" r="2.64" transform="rotate(27.9011 428.032 95.0232)" fill="#6ABA43" fill-opacity="0.49"/>
<circle cx="442.03" cy="102.435" r="2.64" transform="rotate(27.9011 442.03 102.435)" fill="#6ABA43" fill-opacity="0.49"/>
<circle cx="456.029" cy="109.848" r="2.64" transform="rotate(27.9011 456.029 109.848)" fill="#6ABA43" fill-opacity="0.49"/>
<circle cx="470.027" cy="117.26" r="2.64" transform="rotate(27.9011 470.027 117.26)" fill="#6ABA43" fill-opacity="0.49"/>
<circle cx="484.026" cy="124.672" r="2.64" transform="rotate(27.9011 484.026 124.672)" fill="#6ABA43" fill-opacity="0.49"/>
<circle cx="498.025" cy="132.084" r="2.64" transform="rotate(27.9011 498.025 132.084)" fill="#6ABA43" fill-opacity="0.49"/>
<circle cx="512.024" cy="139.497" r="2.64" transform="rotate(27.9011 512.024 139.497)" fill="#6ABA43" fill-opacity="0.49"/>
<circle cx="526.023" cy="146.909" r="2.64" transform="rotate(27.9011 526.023 146.909)" fill="#6ABA43" fill-opacity="0.49"/>
<circle cx="540.021" cy="154.321" r="2.64" transform="rotate(27.9011 540.021 154.321)" fill="#6ABA43" fill-opacity="0.49"/>
<circle cx="554.02" cy="161.734" r="2.64" transform="rotate(27.9011 554.02 161.734)" fill="#6ABA43" fill-opacity="0.49"/>
</g>
<g clip-path="url(#clip19_110_2)">
<circle cx="406.621" cy="101.61" r="2.64" transform="rotate(27.9011 406.621 101.61)" fill="#6ABA43" fill-opacity="0.49"/>
<circle cx="420.62" cy="109.022" r="2.64" transform="rotate(27.9011 420.62 109.022)" fill="#6ABA43" fill-opacity="0.49"/>
<circle cx="434.618" cy="116.434" r="2.64" transform="rotate(27.9011 434.618 116.434)" fill="#6ABA43" fill-opacity="0.49"/>
<circle cx="448.617" cy="123.846" r="2.64" transform="rotate(27.9011 448.617 123.846)" fill="#6ABA43" fill-opacity="0.49"/>
<circle cx="462.615" cy="131.259" r="2.64" transform="rotate(27.9011 462.615 131.259)" fill="#6ABA43" fill-opacity="0.49"/>
<circle cx="476.614" cy="138.671" r="2.64" transform="rotate(27.9011 476.614 138.671)" fill="#6ABA43" fill-opacity="0.49"/>
<circle cx="490.613" cy="146.083" r="2.64" transform="rotate(27.9011 490.613 146.083)" fill="#6ABA43" fill-opacity="0.49"/>
<circle cx="504.612" cy="153.495" r="2.64" transform="rotate(27.9011 504.612 153.495)" fill="#6ABA43" fill-opacity="0.49"/>
<circle cx="518.61" cy="160.908" r="2.64" transform="rotate(27.9011 518.61 160.908)" fill="#6ABA43" fill-opacity="0.49"/>
<circle cx="532.609" cy="168.32" r="2.64" transform="rotate(27.9011 532.609 168.32)" fill="#6ABA43" fill-opacity="0.49"/>
<circle cx="546.608" cy="175.732" r="2.64" transform="rotate(27.9011 546.608 175.732)" fill="#6ABA43" fill-opacity="0.49"/>
</g>
<g clip-path="url(#clip20_110_2)">
<circle cx="399.208" cy="115.608" r="2.64" transform="rotate(27.9011 399.208 115.608)" fill="#6ABA43" fill-opacity="0.49"/>
<circle cx="413.207" cy="123.021" r="2.64" transform="rotate(27.9011 413.207 123.021)" fill="#6ABA43" fill-opacity="0.49"/>
<circle cx="427.206" cy="130.433" r="2.64" transform="rotate(27.9011 427.206 130.433)" fill="#6ABA43" fill-opacity="0.49"/>
<circle cx="441.204" cy="137.845" r="2.64" transform="rotate(27.9011 441.204 137.845)" fill="#6ABA43" fill-opacity="0.49"/>
<circle cx="455.203" cy="145.257" r="2.64" transform="rotate(27.9011 455.203 145.257)" fill="#6ABA43" fill-opacity="0.49"/>
<circle cx="469.201" cy="152.669" r="2.64" transform="rotate(27.9011 469.201 152.669)" fill="#6ABA43" fill-opacity="0.49"/>
<circle cx="483.2" cy="160.082" r="2.64" transform="rotate(27.9011 483.2 160.082)" fill="#6ABA43" fill-opacity="0.49"/>
<circle cx="497.199" cy="167.494" r="2.64" transform="rotate(27.9011 497.199 167.494)" fill="#6ABA43" fill-opacity="0.49"/>
<circle cx="511.198" cy="174.906" r="2.64" transform="rotate(27.9011 511.198 174.906)" fill="#6ABA43" fill-opacity="0.49"/>
<circle cx="525.196" cy="182.319" r="2.64" transform="rotate(27.9011 525.196 182.319)" fill="#6ABA43" fill-opacity="0.49"/>
<circle cx="539.195" cy="189.731" r="2.64" transform="rotate(27.9011 539.195 189.731)" fill="#6ABA43" fill-opacity="0.49"/>
</g>
<g clip-path="url(#clip21_110_2)">
<circle cx="391.796" cy="129.607" r="2.64" transform="rotate(27.9011 391.796 129.607)" fill="#6ABA43" fill-opacity="0.49"/>
<circle cx="405.795" cy="137.019" r="2.64" transform="rotate(27.9011 405.795 137.019)" fill="#6ABA43" fill-opacity="0.49"/>
<circle cx="419.794" cy="144.432" r="2.64" transform="rotate(27.9011 419.794 144.432)" fill="#6ABA43" fill-opacity="0.49"/>
<circle cx="433.792" cy="151.844" r="2.64" transform="rotate(27.9011 433.792 151.844)" fill="#6ABA43" fill-opacity="0.49"/>
<circle cx="447.791" cy="159.256" r="2.64" transform="rotate(27.9011 447.791 159.256)" fill="#6ABA43" fill-opacity="0.49"/>
<circle cx="461.789" cy="166.668" r="2.64" transform="rotate(27.9011 461.789 166.668)" fill="#6ABA43" fill-opacity="0.49"/>
<circle cx="475.788" cy="174.081" r="2.64" transform="rotate(27.9011 475.788 174.081)" fill="#6ABA43" fill-opacity="0.49"/>
<circle cx="489.787" cy="181.493" r="2.64" transform="rotate(27.9011 489.787 181.493)" fill="#6ABA43" fill-opacity="0.49"/>
<circle cx="503.786" cy="188.905" r="2.64" transform="rotate(27.9011 503.786 188.905)" fill="#6ABA43" fill-opacity="0.49"/>
<circle cx="517.784" cy="196.317" r="2.64" transform="rotate(27.9011 517.784 196.317)" fill="#6ABA43" fill-opacity="0.49"/>
<circle cx="531.783" cy="203.73" r="2.64" transform="rotate(27.9011 531.783 203.73)" fill="#6ABA43" fill-opacity="0.49"/>
</g>
<g clip-path="url(#clip22_110_2)">
<circle cx="384.384" cy="143.606" r="2.64" transform="rotate(27.9011 384.384 143.606)" fill="#6ABA43" fill-opacity="0.49"/>
<circle cx="398.383" cy="151.018" r="2.64" transform="rotate(27.9011 398.383 151.018)" fill="#6ABA43" fill-opacity="0.49"/>
<circle cx="412.381" cy="158.43" r="2.64" transform="rotate(27.9011 412.381 158.43)" fill="#6ABA43" fill-opacity="0.49"/>
<circle cx="426.38" cy="165.843" r="2.64" transform="rotate(27.9011 426.38 165.843)" fill="#6ABA43" fill-opacity="0.49"/>
<circle cx="440.379" cy="173.255" r="2.64" transform="rotate(27.9011 440.379 173.255)" fill="#6ABA43" fill-opacity="0.49"/>
<circle cx="454.377" cy="180.667" r="2.64" transform="rotate(27.9011 454.377 180.667)" fill="#6ABA43" fill-opacity="0.49"/>
<circle cx="468.376" cy="188.079" r="2.64" transform="rotate(27.9011 468.376 188.079)" fill="#6ABA43" fill-opacity="0.49"/>
<circle cx="482.375" cy="195.492" r="2.64" transform="rotate(27.9011 482.375 195.492)" fill="#6ABA43" fill-opacity="0.49"/>
<circle cx="496.373" cy="202.904" r="2.64" transform="rotate(27.9011 496.373 202.904)" fill="#6ABA43" fill-opacity="0.49"/>
<circle cx="510.372" cy="210.316" r="2.64" transform="rotate(27.9011 510.372 210.316)" fill="#6ABA43" fill-opacity="0.49"/>
<circle cx="524.371" cy="217.728" r="2.64" transform="rotate(27.9011 524.371 217.728)" fill="#6ABA43" fill-opacity="0.49"/>
</g>
</g>
<rect width="855" height="855" rx="427.5" transform="matrix(-1 0 0 1 987 94)" fill="#B6DDA3"/>
<defs>
<clipPath id="clip0_110_2">
<rect width="176" height="176" fill="white" transform="translate(0 307)"/>
</clipPath>
<clipPath id="clip1_110_2">
<rect width="176" height="15.84" fill="white" transform="translate(0 322.84)"/>
</clipPath>
<clipPath id="clip2_110_2">
<rect width="176" height="15.84" fill="white" transform="translate(0 338.68)"/>
</clipPath>
<clipPath id="clip3_110_2">
<rect width="176" height="15.84" fill="white" transform="translate(0 354.52)"/>
</clipPath>
<clipPath id="clip4_110_2">
<rect width="176" height="15.84" fill="white" transform="translate(0 370.36)"/>
</clipPath>
<clipPath id="clip5_110_2">
<rect width="176" height="15.84" fill="white" transform="translate(0 386.2)"/>
</clipPath>
<clipPath id="clip6_110_2">
<rect width="176" height="15.84" fill="white" transform="translate(0 402.04)"/>
</clipPath>
<clipPath id="clip7_110_2">
<rect width="176" height="15.84" fill="white" transform="translate(0 417.88)"/>
</clipPath>
<clipPath id="clip8_110_2">
<rect width="176" height="15.84" fill="white" transform="translate(0 433.72)"/>
</clipPath>
<clipPath id="clip9_110_2">
<rect width="176" height="15.84" fill="white" transform="translate(0 449.56)"/>
</clipPath>
<clipPath id="clip10_110_2">
<rect width="176" height="15.84" fill="white" transform="translate(0 465.4)"/>
</clipPath>
<clipPath id="clip11_110_2">
<rect width="176" height="176" fill="white" transform="translate(457.409 0.0501099) rotate(27.9011)"/>
</clipPath>
<clipPath id="clip12_110_2">
<rect width="176" height="15.84" fill="white" transform="translate(457.409 0.0501099) rotate(27.9011)"/>
</clipPath>
<clipPath id="clip13_110_2">
<rect width="176" height="15.84" fill="white" transform="translate(449.997 14.0488) rotate(27.9011)"/>
</clipPath>
<clipPath id="clip14_110_2">
<rect width="176" height="15.84" fill="white" transform="translate(442.584 28.0475) rotate(27.9011)"/>
</clipPath>
<clipPath id="clip15_110_2">
<rect width="176" height="15.84" fill="white" transform="translate(435.172 42.0462) rotate(27.9011)"/>
</clipPath>
<clipPath id="clip16_110_2">
<rect width="176" height="15.84" fill="white" transform="translate(427.76 56.045) rotate(27.9011)"/>
</clipPath>
<clipPath id="clip17_110_2">
<rect width="176" height="15.84" fill="white" transform="translate(420.347 70.0437) rotate(27.9011)"/>
</clipPath>
<clipPath id="clip18_110_2">
<rect width="176" height="15.84" fill="white" transform="translate(412.935 84.0424) rotate(27.9011)"/>
</clipPath>
<clipPath id="clip19_110_2">
<rect width="176" height="15.84" fill="white" transform="translate(405.523 98.0411) rotate(27.9011)"/>
</clipPath>
<clipPath id="clip20_110_2">
<rect width="176" height="15.84" fill="white" transform="translate(398.11 112.04) rotate(27.9011)"/>
</clipPath>
<clipPath id="clip21_110_2">
<rect width="176" height="15.84" fill="white" transform="translate(390.698 126.038) rotate(27.9011)"/>
</clipPath>
<clipPath id="clip22_110_2">
<rect width="176" height="15.84" fill="white" transform="translate(383.286 140.037) rotate(27.9011)"/>
</clipPath>
</defs>
</svg>
