<svg width="238" height="204" viewBox="0 0 238 204" fill="none" xmlns="http://www.w3.org/2000/svg">
<g clip-path="url(#clip0_70_207)">
<path d="M177.701 23.5275C138.675 -6.53893 84.3818 -7.76747 44.772 21.5273C23.8332 37.0136 7.60018 60.7063 10.5537 96.781C11.5975 109.541 14.5028 120.009 18.7413 128.579C35.9089 163.318 106.42 161.98 110.336 161.975C112.873 161.973 115.41 162.029 117.947 162.145C126.834 162.553 135.674 163.67 144.382 165.486C156.798 168.072 172.604 169.372 186.727 164.473C189.126 163.645 191.458 162.631 193.7 161.442C201.461 157.32 210.149 153.381 215.228 143.603C219.045 136.265 221.826 127.063 223.165 115.603C228.036 73.865 203.696 43.5549 177.701 23.5275Z" fill="#D6CD00" fill-opacity="0.55"/>
<path d="M118.118 173.115C179.75 173.115 229.712 168.427 229.712 162.645C229.712 156.862 179.75 152.175 118.118 152.175C56.4862 152.175 6.52368 156.862 6.52368 162.645C6.52368 168.427 56.4862 173.115 118.118 173.115Z" fill="#E5E5E5"/>
<path opacity="0.1" d="M112.667 167.559C169.989 167.559 216.458 165.359 216.458 162.645C216.458 159.93 169.989 157.73 112.667 157.73C55.3442 157.73 8.87524 159.93 8.87524 162.645C8.87524 165.359 55.3442 167.559 112.667 167.559Z" fill="black"/>
<path d="M170.085 22.4205V34.167H154.785V162.271H186.716V39.0431V34.167V22.4205H170.085Z" fill="#6ABA43" fill-opacity="0.49"/>
<path d="M85.8233 101.322V81.1532H66.31V101.322H58.9927V162.492H92.919V101.322H85.8233Z" fill="#6ABA43" fill-opacity="0.49"/>
<path d="M89.1493 134.124H62.762V162.714H89.1493V134.124Z" fill="#227203"/>
<path opacity="0.1" d="M66.9751 134.124H62.762V162.714H66.9751V134.124Z" fill="black"/>
<path d="M143.476 15.993V22.8636H104.449V15.993H92.9187V162.714H154.785V15.993H143.476Z" fill="#227203"/>
<path opacity="0.1" d="M152.124 15.993H143.476V22.8637H152.124V15.993Z" fill="black"/>
<path opacity="0.1" d="M101.567 15.993H92.9189V162.714H101.567V15.993Z" fill="black"/>
<path d="M48.7924 57.8818V52.3409H43.0271V57.8818H32.605V162.714H58.9926V57.8818H48.7924Z" fill="#6ABA43"/>
<path opacity="0.1" d="M46.1313 52.3414H43.0269V57.8822H46.1313V52.3414Z" fill="black"/>
<path opacity="0.1" d="M35.7094 57.882H32.605V162.714H35.7094V57.882Z" fill="black"/>
<path opacity="0.1" d="M152.124 72.5098H143.476V162.714H152.124V72.5098Z" fill="black"/>
<path opacity="0.1" d="M58.9922 57.882H51.0095V77.164H58.9922V57.882Z" fill="black"/>
<path d="M114.871 34.6107H102.454V39.9299H114.871V34.6107Z" fill="white"/>
<path d="M141.259 89.3535H128.841V94.6727H141.259V89.3535Z" fill="white"/>
<path d="M114.871 127.696H102.454V133.015H114.871V127.696Z" fill="white"/>
<path d="M52.1185 81.818H39.7009V87.1372H52.1185V81.818Z" fill="white"/>
<path d="M82.2755 137.226H69.8579V142.545H82.2755V137.226Z" fill="white"/>
<path opacity="0.1" d="M86.7104 105.976H65.4231V114.841H86.7104V105.976Z" fill="black"/>
<path opacity="0.1" d="M179.842 44.3622H158.555V53.2275H179.842V44.3622Z" fill="black"/>
<path opacity="0.1" d="M179.842 63.2009H158.555V72.0662H179.842V63.2009Z" fill="black"/>
<path opacity="0.1" d="M179.842 82.0397H158.555V90.905H179.842V82.0397Z" fill="black"/>
<path opacity="0.1" d="M179.842 100.878H158.555V109.744H179.842V100.878Z" fill="black"/>
<path opacity="0.1" d="M179.842 119.717H158.555V128.582H179.842V119.717Z" fill="black"/>
<path opacity="0.1" d="M179.842 138.556H158.555V147.421H179.842V138.556Z" fill="black"/>
<path d="M194.033 84.4775V60.3196H178.511V84.4775H172.968V162.714H199.355V84.4775H194.033Z" fill="#6ABA43"/>
<path opacity="0.1" d="M183.39 60.3196H178.511V84.4776H183.39V60.3196Z" fill="black"/>
<path opacity="0.1" d="M177.846 84.4778H172.968V162.714H177.846V84.4778Z" fill="black"/>
<path opacity="0.1" d="M199.355 123.707H186.272V131.464H199.355V123.707Z" fill="black"/>
<path d="M199.133 112.182H186.716V117.501H199.133V112.182Z" fill="white"/>
</g>
<defs>
<clipPath id="clip0_70_207">
<rect width="238" height="203.265" fill="white" transform="translate(0 0.250732)"/>
</clipPath>
</defs>
</svg>
