<svg width="214" height="214" viewBox="0 0 214 214" fill="none" xmlns="http://www.w3.org/2000/svg">
<g clip-path="url(#clip0_149_174)">
<path d="M107.923 0.00169704C111.427 0.00169704 114.878 0.229072 118.088 0.764072C121.249 1.17833 124.369 1.86753 127.41 2.82382C130.46 3.7467 133.442 4.89695 136.425 6.34145C139.327 7.71907 142.31 9.40432 145.293 11.2367C150.335 14.4467 155.297 17.0414 160.353 19.1146C170.306 23.0981 180.83 25.4685 191.53 26.1364C196.96 26.5243 202.538 26.7517 208.342 26.7517V80.2517C208.342 90.4167 207.045 100.047 204.45 109.222C201.958 118.266 198.416 126.988 193.897 135.21C189.398 143.42 184.074 151.15 178.008 158.281C171.849 165.575 165.181 172.422 158.053 178.772C150.83 185.14 143.223 191.059 135.275 196.494C127.33 202.004 119.305 207.127 111.28 211.781L108.07 213.694L104.86 211.781C96.6104 207.005 88.5524 201.905 80.7049 196.494C72.7119 191.12 65.1011 185.199 57.9272 178.772C50.8036 172.422 44.1395 165.575 37.9851 158.281C31.9355 151.12 26.5877 143.394 22.0154 135.21C17.574 126.951 14.0359 118.239 11.4625 109.222C8.85129 99.7891 7.56389 90.039 7.63724 80.2517V26.7517C13.4554 26.7517 19.0327 26.5243 24.463 26.1364C29.8085 25.7652 35.1193 25.0007 40.3525 23.8493C45.4751 22.6991 50.5977 21.1743 55.6401 19.1146C60.8725 17.0029 65.889 14.3916 70.6201 11.3169C76.5051 7.4917 82.4704 4.66957 88.3554 2.81045C94.6933 0.867482 101.294 -0.0800444 107.923 0.00169704ZM194.887 39.8993C184.763 39.4081 174.733 37.7154 165.007 34.8569C155.334 31.9714 146.12 27.7246 137.642 22.2443C133.245 19.3579 128.469 17.0939 123.451 15.5167C118.439 14.0018 113.226 13.2532 107.99 13.2964C102.715 13.2623 97.4637 14.0105 92.408 15.5167C87.3826 17.0427 82.6131 19.3102 78.2572 22.2443C69.7649 27.7545 60.527 32.0199 50.8251 34.9104C41.3422 37.6657 31.418 39.3509 21.0122 39.9662V80.3186C21.0122 89.1862 22.1625 97.6659 24.463 105.838C26.8066 113.939 30.0361 121.757 34.093 129.151C38.1984 136.621 43.0373 143.664 48.538 150.176C54.1154 156.743 60.0672 162.856 66.4872 168.66C72.9072 174.479 79.6349 179.829 86.6701 184.791C93.7722 189.766 100.888 194.274 107.99 198.393C115.262 194.159 122.353 189.621 129.243 184.791C136.324 179.844 143.088 174.457 149.492 168.66C155.913 162.856 161.878 156.743 167.455 150.176C172.956 143.665 177.795 136.621 181.9 129.151C185.939 121.767 189.121 113.945 191.383 105.838C193.753 97.5404 194.933 88.9481 194.887 80.3186V39.8993Z" fill="#6ABA43"/>
<path d="M151.062 88.4132C151.065 80.9472 149.14 73.6069 145.474 67.1029C141.808 60.5989 136.525 55.1515 130.137 51.288C123.748 47.4245 116.47 45.2757 109.008 45.0497C101.545 44.8236 94.1506 46.528 87.5399 49.9978C80.9292 53.4677 75.3262 58.5854 71.2733 64.8556C67.2205 71.1258 64.855 78.3361 64.4059 85.7886C63.9568 93.2411 65.4393 100.683 68.7099 107.395C71.9805 114.106 76.9283 119.86 83.0745 124.098L64.3274 156.562L78.3041 157.138L85.7881 168.953L107.261 131.756C107.41 131.756 107.546 131.781 107.695 131.781C107.844 131.781 107.98 131.762 108.128 131.756L129.602 168.953L137.234 157.392L151.062 156.562L132.315 124.098C138.099 120.116 142.828 114.787 146.094 108.57C149.36 102.353 151.065 95.4356 151.062 88.4132ZM76.7181 88.4132C76.7181 82.2866 78.5348 76.2975 81.9386 71.2034C85.3424 66.1093 90.1803 62.139 95.8405 59.7944C101.501 57.4499 107.729 56.8364 113.738 58.0317C119.747 59.2269 125.267 62.1772 129.599 66.5093C133.931 70.8415 136.881 76.361 138.076 82.3699C139.272 88.3788 138.658 94.6072 136.314 100.267C133.969 105.928 129.999 110.766 124.905 114.169C119.81 117.573 113.821 119.39 107.695 119.39C99.4793 119.39 91.6002 116.126 85.791 110.317C79.9817 104.508 76.7181 96.6287 76.7181 88.4132Z" fill="#6ABA43"/>
<path fill-rule="evenodd" clip-rule="evenodd" d="M124.933 78.8394L122.936 77.1233L121.092 77.2822L101.298 100.654L94.556 91.0294L92.74 90.7207L90.638 92.2234L90.3247 94.0394L98.9916 106.416L99.9768 106.96L102.052 107.087L103.114 106.624L125.065 80.6781L124.933 78.8394Z" fill="#FFF50B"/>
</g>
<defs>
<clipPath id="clip0_149_174">
<rect width="214" height="214" fill="white"/>
</clipPath>
</defs>
</svg>
